# xmcd CD database file
#
# Track frame offsets:
#	150
#	11919
#	25933
#	38602
#	49495
#	63032
#	72376
#	83637
#	94996
#	106973
#	120014
#	129942
#	143997
#	156290
#	163712
#	173191
#	187411
#	201316
#	214107
#	223977
#	237117
#	249852
#	259568
#
# Disc length: 3614 seconds
#
# Revision: 0
# Processed by: cddbd v1.5.2PL0 Copyright (c) Steve Scherf et al.
# Submitted via: CDex 1.70beta2
#
DISCID=480e1c17
DTITLE=Jerry Gray and his Orchestra - The Spirit is Willing
DYEAR=2004
DGENRE=Jazz
TTITLE0=The Spirit is Willing
TTITLE1=My Bolero
TTITLE2=That Lucky Old Sun
TTITLE3=Thou Swell
TTITLE4=Baby's Lullaby
TTITLE5=Some Day
TTITLE6=Give Me Your Heart
TTITLE7=Solid as a Stonewall Jackson
TTITLE8=One Stop Boogie
TTITLE9=Crazy, She Calls Me
TTITLE10=American Patrol
TTITLE11=The Way You Look Tonight
TTITLE12=Jurame
TTITLE13=Don't Be That Way
TTITLE14=After You've Gone
TTITLE15=Get Happy
TTITLE16=Oh! So Good
TTITLE17=Tomkin's Cove
TTITLE18=Unforgettable
TTITLE19=Oh! Lady Be Good
TTITLE20=Coronado Cruise
TTITLE21=Kettle Drum Hop
TTITLE22=Off the Wall
EXTD=YEAR: 2004
EXTT0=
EXTT1=
EXTT2=
EXTT3=
EXTT4=
EXTT5=
EXTT6=
EXTT7=
EXTT8=
EXTT9=
EXTT10=
EXTT11=
EXTT12=
EXTT13=
EXTT14=
EXTT15=
EXTT16=
EXTT17=
EXTT18=
EXTT19=
EXTT20=
EXTT21=
EXTT22=
PLAYORDER=
